<svg xmlns="http://www.w3.org/2000/svg" width="52.908" height="44.2" viewBox="0 0 52.908 44.2">
  <g id="alert-svgrepo-com" transform="translate(0.34 -41.612)">
    <path id="Path_18636" data-name="Path 18636" d="M37.276,53.937l1.4,2.264L54.2,81.151c2.306,3.705.618,6.711-3.788,6.711H8.58c-4.364,0-6.093-3.047-3.788-6.752L25.254,48.091c2.306-3.705,6.052-3.705,8.358,0Z" transform="translate(-3.381 -3.05)" fill="#ff4544"/>
    <g id="Group_36727" data-name="Group 36727" transform="translate(24.014 54.099)">
      <path id="Path_18637" data-name="Path 18637" d="M235.771,179.168a2.065,2.065,0,0,1-2.059-2.059V162.371a2.092,2.092,0,0,1,2.059-2.059,2.065,2.065,0,0,1,2.059,2.059V177.11A2.092,2.092,0,0,1,235.771,179.168Z" transform="translate(-233.671 -160.312)" fill="#fff"/>
      <path id="Path_18638" data-name="Path 18638" d="M235.371,371.229a1.931,1.931,0,0,1-1.441-.618,2.1,2.1,0,0,1-.618-1.441,1.931,1.931,0,0,1,.618-1.441,2.1,2.1,0,0,1,1.441-.618,1.931,1.931,0,0,1,1.441.618,2.1,2.1,0,0,1,.618,1.441,1.931,1.931,0,0,1-.618,1.441A2.1,2.1,0,0,1,235.371,371.229Z" transform="translate(-233.312 -345.827)" fill="#fff"/>
    </g>
    <path id="Path_18639" data-name="Path 18639" d="M47.029,85.512H5.2c-2.264,0-3.952-.782-4.735-2.223s-.576-3.376.618-5.27l20.462-33.1c1.194-1.935,2.8-3.005,4.57-3.005h0A5.359,5.359,0,0,1,30.6,44.835l3.623,5.805h0l1.4,2.264L51.146,77.978c1.194,1.894,1.4,3.829.618,5.27C50.981,84.73,49.293,85.512,47.029,85.512ZM26.072,42.735h0c-1.441,0-2.8.906-3.87,2.594L1.74,78.431C.711,80.078.505,81.683,1.164,82.877s2.1,1.812,4.035,1.812h41.83c1.935,0,3.376-.659,4.035-1.812s.453-2.8-.576-4.446L34.965,53.358l-1.4-2.264-3.623-5.805A4.8,4.8,0,0,0,26.072,42.735Z" transform="translate(0)" fill="#fff" stroke="#fff" stroke-width="0.6"/>
  </g>
</svg>
