<svg xmlns="http://www.w3.org/2000/svg" width="18" height="16.411" viewBox="0 0 18 16.411">
  <path id="_463001_documentation_folder_project_icon" data-name="463001_documentation_folder_project_icon" d="M26.57,20.306v-.175a1.593,1.593,0,0,0-1.589-1.589H21.009a1.027,1.027,0,0,1-.953-1.033v.079A1.593,1.593,0,0,0,18.467,16H12.589A1.593,1.593,0,0,0,11,17.589V29.822a1.593,1.593,0,0,0,1.589,1.589H26.411A1.593,1.593,0,0,0,28,29.822V21.879A1.586,1.586,0,0,0,26.57,20.306ZM12.589,30.776a.956.956,0,0,1-.953-.953V17.589a.956.956,0,0,1,.953-.953h5.879a.956.956,0,0,1,.953.953,1.593,1.593,0,0,0,1.589,1.589h3.972a.956.956,0,0,1,.953.953v.159h-10.8a1.593,1.593,0,0,0-1.589,1.589v7.944a.956.956,0,0,1-.953.953Zm14.776-.953a.956.956,0,0,1-.953.953H13.86a1.564,1.564,0,0,0,.318-.953V21.879a.956.956,0,0,1,.953-.953h11.28a.956.956,0,0,1,.953.953Z" transform="translate(-10.5 -15.5)" fill="#a3a9b4" stroke="#a3a9b4" stroke-width="1"/>
</svg>
