<svg xmlns="http://www.w3.org/2000/svg" width="16" height="19.692" viewBox="0 0 16 19.692">
  <g id="_19-Document" data-name="19-Document" transform="translate(-3 0)">
    <path id="Path_28380" data-name="Path 28380" d="M18.822,3.871,15.129.178A.615.615,0,0,0,14.692,0H4.846A1.846,1.846,0,0,0,3,1.846v16a1.846,1.846,0,0,0,1.846,1.846H17.154A1.846,1.846,0,0,0,19,17.846V4.308a.615.615,0,0,0-.178-.437ZM17.769,17.846a.615.615,0,0,1-.615.615H4.846a.615.615,0,0,1-.615-.615v-16a.615.615,0,0,1,.615-.615h9.231V3.692a1.231,1.231,0,0,0,1.231,1.231h2.462Z" transform="translate(0 0)" fill="#892428"/>
    <rect id="Rectangle_19562" data-name="Rectangle 19562" width="11.077" height="1.231" transform="translate(5.462 8.308)" fill="#892428"/>
    <rect id="Rectangle_19563" data-name="Rectangle 19563" width="11.077" height="1.231" transform="translate(5.462 11.385)" fill="#892428"/>
  </g>
</svg>
