<svg xmlns="http://www.w3.org/2000/svg" width="20.72" height="18.163" viewBox="0 0 20.72 18.163">
  <g id="filter-line-icon" transform="translate(0.25 0.25)">
    <path id="Path_28396" data-name="Path 28396" d="M.459,0h19.3a.46.46,0,0,1,.3.809l-7.7,7.666v6.579a.46.46,0,0,1-.259.414l-3.634,2.1a.459.459,0,0,1-.689-.4h0v-8.7L.133.783A.459.459,0,0,1,.459,0ZM18.647.92H1.562l6.97,7.018a.459.459,0,0,1,.159.348v8.087l2.744-1.584v-6.5h0a.457.457,0,0,1,.135-.325L18.647.92Z" transform="translate(0)" fill="#a3a9b4" stroke="#a3a9b4" stroke-width="0.5"/>
  </g>
</svg>
