<svg xmlns="http://www.w3.org/2000/svg" xmlns:xlink="http://www.w3.org/1999/xlink" width="1368" height="180" viewBox="0 0 1368 180">
  <defs>
    <clipPath id="clip-path">
      <path id="Rectangle_19645" data-name="Rectangle 19645" d="M8,0H1359a8,8,0,0,1,8,8V180a0,0,0,0,1,0,0H0a0,0,0,0,1,0,0V8A8,8,0,0,1,8,0Z" transform="translate(277 378)" fill="#892428"/>
    </clipPath>
    <linearGradient id="linear-gradient" x1="4.014" y1="-3.732" x2="18.965" y2="-13.99" gradientUnits="objectBoundingBox">
      <stop offset="0" stop-color="#fff"/>
      <stop offset="1"/>
    </linearGradient>
    <linearGradient id="linear-gradient-2" x1="0.339" y1="0.175" x2="2.072" y2="-1.014" xlink:href="#linear-gradient"/>
    <linearGradient id="linear-gradient-3" x1="0.242" y1="0.573" x2="1.14" y2="-0.388" xlink:href="#linear-gradient"/>
    <linearGradient id="linear-gradient-4" x1="0.629" y1="0.796" x2="2.187" y2="-1.342" xlink:href="#linear-gradient"/>
    <linearGradient id="linear-gradient-5" x1="0.226" y1="1.038" x2="1.235" y2="-0.027" xlink:href="#linear-gradient"/>
    <linearGradient id="linear-gradient-6" x1="0.198" y1="0.724" x2="1.586" y2="-0.628" xlink:href="#linear-gradient"/>
    <linearGradient id="linear-gradient-7" x1="-0.115" y1="0.39" x2="1.788" y2="-0.631" xlink:href="#linear-gradient"/>
    <linearGradient id="linear-gradient-8" x1="-0.551" y1="0.818" x2="1.793" y2="-0.791" xlink:href="#linear-gradient"/>
    <linearGradient id="linear-gradient-9" x1="0.013" y1="0.527" x2="1.469" y2="-0.549" xlink:href="#linear-gradient"/>
    <linearGradient id="linear-gradient-10" x1="1.091" y1="-0.546" x2="3.934" y2="-3.195" xlink:href="#linear-gradient"/>
    <linearGradient id="linear-gradient-11" x1="0.143" y1="0.673" x2="1.317" y2="-0.619" xlink:href="#linear-gradient"/>
    <linearGradient id="linear-gradient-12" x1="0.599" y1="1.485" x2="2.465" y2="-1.074" xlink:href="#linear-gradient"/>
    <linearGradient id="linear-gradient-13" x1="0.158" y1="1.069" x2="1.356" y2="-0.009" xlink:href="#linear-gradient"/>
    <linearGradient id="linear-gradient-14" x1="-0.725" y1="0.461" x2="3.043" y2="-1.102" xlink:href="#linear-gradient"/>
    <linearGradient id="linear-gradient-15" x1="0.033" y1="1.169" x2="1.001" y2="-0.173" xlink:href="#linear-gradient"/>
    <linearGradient id="linear-gradient-16" x1="-0.889" y1="1.808" x2="1.255" y2="0.294" xlink:href="#linear-gradient"/>
    <linearGradient id="linear-gradient-17" x1="-0.845" y1="1.967" x2="0.766" y2="0.535" xlink:href="#linear-gradient"/>
    <linearGradient id="linear-gradient-18" x1="-1.756" y1="1.607" x2="1.295" y2="-0.332" xlink:href="#linear-gradient"/>
    <linearGradient id="linear-gradient-19" x1="0.064" y1="0.415" x2="1.59" y2="-0.632" xlink:href="#linear-gradient"/>
    <linearGradient id="linear-gradient-20" x1="-1.055" y1="1.651" x2="0.686" y2="-0.738" xlink:href="#linear-gradient"/>
    <linearGradient id="linear-gradient-21" x1="-1.781" y1="2.54" x2="0.54" y2="0.898" xlink:href="#linear-gradient"/>
    <linearGradient id="linear-gradient-22" x1="-6.776" y1="9.194" x2="-1.431" y2="3.296" xlink:href="#linear-gradient"/>
    <linearGradient id="linear-gradient-23" x1="-1.671" y1="2.731" x2="0.646" y2="-0.448" xlink:href="#linear-gradient"/>
    <linearGradient id="linear-gradient-24" x1="0.278" y1="-0.135" x2="0.857" y2="1.518" gradientUnits="objectBoundingBox">
      <stop offset="0" stop-color="#393939"/>
      <stop offset="0.297" stop-color="#0f0f0f"/>
      <stop offset="0.356" stop-color="#4b4b4b"/>
      <stop offset="0.416" stop-color="#818181"/>
      <stop offset="0.474" stop-color="#aeaeae"/>
      <stop offset="0.53" stop-color="#d1d1d1"/>
      <stop offset="0.582" stop-color="#eaeaea"/>
      <stop offset="0.63" stop-color="#f9f9f9"/>
      <stop offset="0.668" stop-color="#fff"/>
      <stop offset="1" stop-color="#c1c1c1"/>
    </linearGradient>
  </defs>
  <g id="Group_37217" data-name="Group 37217" transform="translate(-276 -173)">
    <path id="Rectangle_19641" data-name="Rectangle 19641" d="M8,0H1359a8,8,0,0,1,8,8V180a0,0,0,0,1,0,0H0a0,0,0,0,1,0,0V8A8,8,0,0,1,8,0Z" transform="translate(276 173)" fill="#892428"/>
    <g id="Mask_Group_122" data-name="Mask Group 122" transform="translate(0 -205)" clip-path="url(#clip-path)">
      <g id="OBJECTS" transform="translate(277 378)" opacity="0.13">
        <g id="Group_27845" data-name="Group 27845" transform="translate(0 0)">
          <path id="Path_23119" data-name="Path 23119" d="M.007.011V52.054L56.386.011Z" transform="translate(-0.007 -0.011)" opacity="0.464" fill="url(#linear-gradient)" style="mix-blend-mode: soft-light;isolation: isolate"/>
          <path id="Path_23120" data-name="Path 23120" d="M.007.011v449l486.41-449Z" transform="translate(-0.007 -0.011)" opacity="0.389" fill="url(#linear-gradient-2)" style="mix-blend-mode: soft-light;isolation: isolate"/>
          <path id="Path_23121" data-name="Path 23121" d="M485.68,655.932,1108.5,81.024,1020.734.011H161.606L.007,149.181V291.468L394.843,655.932Z" transform="translate(-0.007 -0.011)" opacity="0.078" fill="url(#linear-gradient-3)" style="mix-blend-mode: soft-light;isolation: isolate"/>
          <path id="Path_23122" data-name="Path 23122" d="M918.515.011l270.521,249.713L1459.556.011Z" transform="translate(-474.46 -0.011)" opacity="0.806" fill="url(#linear-gradient-4)" style="mix-blend-mode: soft-light;isolation: isolate"/>
          <path id="Path_23123" data-name="Path 23123" d="M1355.308.011,1104.88,231.173l292.39,269.9L1940.084.011Z" transform="translate(-570.726 -0.011)" opacity="0.977" fill="url(#linear-gradient-5)" style="mix-blend-mode: soft-light;isolation: isolate"/>
          <path id="Path_23124" data-name="Path 23124" d="M721.553,655.932,1432.137.011H847.366l-424.449,391.8L709.05,655.932Z" transform="translate(-218.46 -0.011)" opacity="0.918" fill="url(#linear-gradient-6)" style="mix-blend-mode: soft-light;isolation: isolate"/>
          <path id="Path_23125" data-name="Path 23125" d="M.007,523.767,443.5,114.387,319.587.011H.007Z" transform="translate(-0.007 -0.011)" opacity="0.817" fill="url(#linear-gradient-7)" style="mix-blend-mode: soft-light;isolation: isolate"/>
          <path id="Path_23126" data-name="Path 23126" d="M.007.011V546.758L592.32.011Z" transform="translate(-0.007 -0.011)" opacity="0.374" fill="url(#linear-gradient-8)" style="mix-blend-mode: soft-light;isolation: isolate"/>
          <path id="Path_23127" data-name="Path 23127" d="M54.873,655.932,765.456.011H180.671L.007,166.779V655.932Z" transform="translate(-0.007 -0.011)" opacity="0.798" fill="url(#linear-gradient-9)" style="mix-blend-mode: soft-light;isolation: isolate"/>
          <path id="Path_23128" data-name="Path 23128" d="M.007.011V158.974l96.048,88.659L364.307.011Z" transform="translate(-0.007 -0.011)" opacity="0.215" fill="url(#linear-gradient-10)" style="mix-blend-mode: soft-light;isolation: isolate"/>
          <path id="Path_23129" data-name="Path 23129" d="M430.012,655.932,1140.589.011H63.812l-63.8,58.9V528.666L137.881,655.932Z" transform="translate(-0.007 -0.011)" opacity="0.553" fill="url(#linear-gradient-11)" style="mix-blend-mode: soft-light;isolation: isolate"/>
          <path id="Path_23130" data-name="Path 23130" d="M1445,.011l225.944,208.564L1896.889.011Z" transform="translate(-746.416 -0.011)" opacity="0.94" fill="url(#linear-gradient-12)" style="mix-blend-mode: soft-light;isolation: isolate"/>
          <path id="Path_23131" data-name="Path 23131" d="M1457.937.011,1310.642,135.977l463.626,427.977,337.905-311.908V.011Z" transform="translate(-677.012 -0.011)" opacity="0.989" fill="url(#linear-gradient-13)" style="mix-blend-mode: soft-light;isolation: isolate"/>
          <g id="Group_27833" data-name="Group 27833" opacity="0.7" style="mix-blend-mode: screen;isolation: isolate">
            <path id="Path_23132" data-name="Path 23132" d="M.007,14.459,15.658.011H10.914L.007,10.079Z" transform="translate(-0.007 -0.011)" fill="#fff"/>
            <path id="Path_23133" data-name="Path 23133" d="M738.2.011,126.194,564.94.007,448.46v4.38l126.187,116.48L742.949.011Z" transform="translate(-0.007 -0.011)" fill="#fff"/>
          </g>
          <g id="Group_27834" data-name="Group 27834" transform="translate(122.825)" opacity="0.72" style="mix-blend-mode: screen;isolation: isolate">
            <path id="Path_23134" data-name="Path 23134" d="M2423.152,360.316l-539.9,498.366H1888L2423.152,364.7Z" transform="translate(-1095.62 -202.762)" fill="#fff"/>
            <path id="Path_23135" data-name="Path 23135" d="M757.984,655.932,258.808,195.153,470.212.011h-4.745l-211.4,195.142L753.239,655.932Z" transform="translate(-254.065 -0.011)" fill="#fff"/>
          </g>
          <g id="Group_27835" data-name="Group 27835" transform="translate(883.014)" opacity="0.37" style="mix-blend-mode: screen;isolation: isolate">
            <path id="Path_23136" data-name="Path 23136" d="M2393.826,356.3,2192.5,542.141,1831.226,208.653,2057.253.011h-4.744L1826.482,208.653,2192.5,546.522l201.328-185.843Z" transform="translate(-1826.482 -0.011)" fill="#fff"/>
          </g>
          <g id="Group_27836" data-name="Group 27836" transform="translate(472.966)" opacity="0.37" style="mix-blend-mode: screen;isolation: isolate">
            <path id="Path_23137" data-name="Path 23137" d="M2446.3,406.061,1928.074,884.424h4.744L2446.3,410.442Z" transform="translate(-1468.912 -228.504)" fill="#fff"/>
            <path id="Path_23138" data-name="Path 23138" d="M1251.185,655.932l-268.124-247.5L1425.519.011h-4.744L978.317,408.432l268.124,247.5Z" transform="translate(-978.317 -0.011)" fill="#fff"/>
          </g>
          <g id="Group_27837" data-name="Group 27837" opacity="0.4" style="mix-blend-mode: screen;isolation: isolate">
            <path id="Path_23139" data-name="Path 23139" d="M.007,107.433,116.379.011h-4.744L.007,103.053Z" transform="translate(-0.007 -0.011)" fill="#fff"/>
            <path id="Path_23140" data-name="Path 23140" d="M265.495,655.932h4.745L912.143,63.4,843.468.011h-4.744L907.4,63.4Z" transform="translate(-137.144 -0.011)" fill="#fff"/>
          </g>
          <g id="Group_27838" data-name="Group 27838" transform="translate(74.089)" opacity="0.32" style="mix-blend-mode: screen;isolation: isolate">
            <path id="Path_23141" data-name="Path 23141" d="M2337.993,192.066,1718.395,764h4.745l614.854-567.558Z" transform="translate(-961.725 -108.085)" fill="#fff"/>
            <path id="Path_23142" data-name="Path 23142" d="M276.714,655.932,158,546.35,749.869.011h-4.744L153.257,546.35,271.97,655.932Z" transform="translate(-153.257 -0.011)" fill="#fff"/>
          </g>
          <g id="Group_27839" data-name="Group 27839" transform="translate(159.333)" opacity="0.53" style="mix-blend-mode: screen;isolation: isolate">
            <path id="Path_23143" data-name="Path 23143" d="M334.324,655.932,1044.9.011h-4.744L329.58,655.932Z" transform="translate(-329.58 -0.011)" fill="#fff"/>
          </g>
          <g id="Group_27840" data-name="Group 27840" opacity="0.24" style="mix-blend-mode: screen;isolation: isolate">
            <path id="Path_23144" data-name="Path 23144" d="M.007,334.8,362.693.011h-4.745L.007,330.422Z" transform="translate(-0.007 -0.011)" fill="#fff"/>
            <path id="Path_23145" data-name="Path 23145" d="M779.706,655.932,1490.293.011h-4.744L774.962,655.932Z" transform="translate(-400.308 -0.011)" fill="#fff"/>
          </g>
          <g id="Group_27841" data-name="Group 27841" opacity="0.19" style="mix-blend-mode: screen;isolation: isolate">
            <path id="Path_23146" data-name="Path 23146" d="M.007,200.635,217.347.011H212.6L.007,196.256Z" transform="translate(-0.007 -0.011)" fill="#fff"/>
            <path id="Path_23147" data-name="Path 23147" d="M2349.17,214.154l-609.138,562.28h4.744l604.394-557.9Z" transform="translate(-898.813 -120.514)" fill="#fff"/>
            <path id="Path_23148" data-name="Path 23148" d="M307.16,1135.152.007,851.626v4.38l302.408,279.146Z" transform="translate(-0.007 -479.232)" fill="#fff"/>
          </g>
          <g id="Group_27842" data-name="Group 27842" transform="translate(1172.954)" opacity="0.36" style="mix-blend-mode: screen;isolation: isolate">
            <path id="Path_23149" data-name="Path 23149" d="M2703.613,105l-79.459,73.346L2430.955.011h-4.745L2624.154,182.73l79.459-73.346Z" transform="translate(-2426.209 -0.011)" fill="#fff"/>
          </g>
          <g id="Group_27843" data-name="Group 27843" transform="translate(1006.735)" opacity="0.41" style="mix-blend-mode: screen;isolation: isolate">
            <path id="Path_23150" data-name="Path 23150" d="M2526.017,495.377,2087.139,90.256,2184.9.011h-4.745l-97.764,90.245,443.622,409.5Z" transform="translate(-2082.395 -0.011)" fill="#fff"/>
          </g>
          <g id="Group_27844" data-name="Group 27844" transform="translate(184.479)" opacity="0.72" style="mix-blend-mode: screen;isolation: isolate">
            <path id="Path_23151" data-name="Path 23151" d="M386.34,655.932,1096.916.011h-4.744L381.595,655.932Z" transform="translate(-381.595 -0.011)" fill="#fff"/>
            <path id="Path_23152" data-name="Path 23152" d="M2502.523,425.43,2041.656.011h-4.744l465.611,429.8Z" transform="translate(-1236.645 -0.011)" fill="#fff"/>
            <path id="Path_23153" data-name="Path 23153" d="M2894.928,1292.4l-98.346,90.782h4.745l93.6-86.4Z" transform="translate(-1629.05 -727.266)" fill="#fff"/>
          </g>
          <path id="Path_23154" data-name="Path 23154" d="M.007,342.406,224.215,135.444,77.5.011H.007Z" transform="translate(-0.007 -0.011)" opacity="0.464" fill="url(#linear-gradient-14)" style="mix-blend-mode: soft-light;isolation: isolate"/>
          <path id="Path_23155" data-name="Path 23155" d="M1464.8.011H729.31L27.962,647.408l9.235,8.524H985.492L1464.8,213.492Z" transform="translate(-14.447 -0.011)" opacity="0.806" fill="url(#linear-gradient-15)" style="mix-blend-mode: soft-light;isolation: isolate"/>
          <path id="Path_23156" data-name="Path 23156" d="M2218.367.011h-20.986l-710.574,655.92h654.737l76.823-70.914Z" transform="translate(-768.01 -0.011)" opacity="0.918" fill="url(#linear-gradient-16)" style="mix-blend-mode: soft-light;isolation: isolate"/>
          <path id="Path_23157" data-name="Path 23157" d="M2151.1,371.988l-181-167.081L1356.58,771.23h703.849l90.67-83.7Z" transform="translate(-700.741 -115.31)" opacity="0.053" fill="url(#linear-gradient-17)" style="mix-blend-mode: soft-light;isolation: isolate"/>
          <path id="Path_23158" data-name="Path 23158" d="M417.2,655.932,657.991,433.656,188.2.011H.007v655.92Z" transform="translate(-0.007 -0.011)" opacity="0.374" fill="url(#linear-gradient-18)" style="mix-blend-mode: soft-light;isolation: isolate"/>
          <path id="Path_23159" data-name="Path 23159" d="M.007.011V626.637L678.855.011Z" transform="translate(-0.007 -0.011)" opacity="0.215" fill="url(#linear-gradient-19)" style="mix-blend-mode: soft-light;isolation: isolate"/>
          <path id="Path_23160" data-name="Path 23160" d="M850.636,1146.63,553.141,872.024,255.652,1146.63Z" transform="translate(-132.06 -490.71)" opacity="0.215" fill="url(#linear-gradient-20)" style="mix-blend-mode: soft-light;isolation: isolate"/>
          <path id="Path_23161" data-name="Path 23161" d="M2600.389,734.514H2589l-362.63,334.737h374.015Z" transform="translate(-1150.031 -413.331)" opacity="0.9" fill="url(#linear-gradient-21)" style="mix-blend-mode: screen;isolation: isolate"/>
          <path id="Path_23162" data-name="Path 23162" d="M2791.746,1377.79v-37.184l-62.608-57.792-102.891,94.976Z" transform="translate(-1356.584 -721.87)" opacity="0.783" fill="url(#linear-gradient-22)" style="mix-blend-mode: soft-light;isolation: isolate"/>
          <path id="Path_23163" data-name="Path 23163" d="M1070.568,1130.142,759.2,842.724l-311.37,287.419Z" transform="translate(-231.327 -474.222)" opacity="0.475" fill="url(#linear-gradient-23)" style="mix-blend-mode: soft-light;isolation: isolate"/>
        </g>
        <path id="Path_23187" data-name="Path 23187" d="M0,0H1449.624V656.792H0Z" transform="translate(0 0.001)" fill="url(#linear-gradient-24)" style="mix-blend-mode: screen;isolation: isolate"/>
      </g>
    </g>
  </g>
</svg>
